<svg width="13" height="15" viewBox="0 0 13 15" fill="none" xmlns="http://www.w3.org/2000/svg">
<path d="M5.49609 10.115C5.67839 10.2791 5.88802 10.3611 6.125 10.3611C6.36198 10.3611 6.57161 10.2791 6.75391 10.115L11.1289 5.73999C11.293 5.5577 11.375 5.34806 11.375 5.11108C11.375 4.8741 11.293 4.66447 11.1289 4.48218C10.9466 4.31812 10.737 4.23608 10.5 4.23608C10.263 4.23608 10.0534 4.31812 9.87109 4.48218L6.125 8.25562L2.37891 4.48218C2.19661 4.31812 1.98698 4.23608 1.75 4.23608C1.51302 4.23608 1.30339 4.31812 1.12109 4.48218C0.957031 4.66447 0.875 4.8741 0.875 5.11108C0.875 5.34806 0.957031 5.5577 1.12109 5.73999L5.49609 10.115Z" fill="#0F0F0F"/>
</svg>
