<svg width="13" height="14" viewBox="0 0 13 14" fill="none" xmlns="http://www.w3.org/2000/svg">
<path d="M6.12109 9.37891C6.30339 9.54297 6.51302 9.625 6.75 9.625C6.98698 9.625 7.19661 9.54297 7.37891 9.37891L11.7539 5.00391C11.918 4.82161 12 4.61198 12 4.375C12 4.13802 11.918 3.92839 11.7539 3.74609C11.5716 3.58203 11.362 3.5 11.125 3.5C10.888 3.5 10.6784 3.58203 10.4961 3.74609L6.75 7.51953L3.00391 3.74609C2.82161 3.58203 2.61198 3.5 2.375 3.5C2.13802 3.5 1.92839 3.58203 1.74609 3.74609C1.58203 3.92839 1.5 4.13802 1.5 4.375C1.5 4.61198 1.58203 4.82161 1.74609 5.00391L6.12109 9.37891Z" fill="white"/>
</svg>
